# xmcd CD database file
#
# Track frame offsets:
#	150
#	16166
#	35177
#	52970
#	71908
#	95285
#	115110
#
# Disc length: 1867 seconds
#
# Revision: 0
# Processed by: cddbd v1.5.2PL0 Copyright (c) Steve Scherf et al.
# Submitted via: CDex 1.51
#
DISCID=57074907
DTITLE=Lotus Child - The Lotus Child EP
DYEAR=2003
DGENRE=Blues
TTITLE0=For Me
TTITLE1=These Colours
TTITLE2=Starsucker
TTITLE3=Morning's Come
TTITLE4=Marlboro Friday
TTITLE5=A Night Blade
TTITLE6=Lakewater
EXTD=YEAR: 2003
EXTT0=
EXTT1=
EXTT2=
EXTT3=
EXTT4=
EXTT5=
EXTT6=
PLAYORDER=
